# xmcd
#
# Track frame offsets: 
#        150
#        19637
#        39740
#
# Disc length: 795 seconds
#
# Revision: 3
# Processed by: cddbd v1.5.2PL0 Copyright (c) Steve Scherf et al.
# Submitted via: ExactAudioCopyFreeDBPlugin 1.0
#
DISCID=1b031903
DTITLE=Elton John - Recover Your Soul
DYEAR=1998
DGENRE=Pop Rock
TTITLE0=Recover Your Soul
TTITLE1=I Know Why I'm In Love
TTITLE2=Big Man In A Little Suit
EXTD=YEAR: 1993
EXTT0=
EXTT1=
EXTT2=
PLAYORDER=
